# xmcd
#
# Track frame offsets:
#	150
#	13967
#	25825
#	32967
#	45122
#	58757
#	65397
#	70877
#	80510
#	92587
#	102480
#	108310
#	113685
#	124527
#	128560
#	137757
#	147217
#	161170
#	173227
#	184435
#
# Disc length: 2645 seconds
#
# Revision: 1
# Processed by: cddbd v1.5.1PL0 Copyright (c) Steve Scherf et al.
# Submitted via: CDex 1.50Beta5
#
DISCID=150a5314
DTITLE=由紀さおり・安田祥子 - 童謡ベストコレクション秋冬
DYEAR=1900
DGENRE=(Doyo)
TTITLE0=ちいさい秋みつけた
TTITLE1=旅愁
TTITLE2=村祭
TTITLE3=里の秋
TTITLE4=秋の子
TTITLE5=紅葉
TTITLE6=虫のこえ
TTITLE7=赤とんぼ
TTITLE8=リンゴ村だより
TTITLE9=秋だったよ
TTITLE10=お正月
TTITLE11=たき火
TTITLE12=冬の夜
TTITLE13=雪
TTITLE14=冬景色
TTITLE15=スキー
TTITLE16=雪の降る街を
TTITLE17=冬の星座
TTITLE18=北風ランドへとびだそう
TTITLE19=雪はこどもに降ってくる
EXTD=
EXTT0=
EXTT1=
EXTT2=
EXTT3=
EXTT4=
EXTT5=
EXTT6=
EXTT7=
EXTT8=
EXTT9=
EXTT10=
EXTT11=
EXTT12=
EXTT13=
EXTT14=
EXTT15=
EXTT16=
EXTT17=
EXTT18=
EXTT19=
PLAYORDER=
